<svg xmlns="http://www.w3.org/2000/svg" width="50" height="50" viewBox="0 0 50 50">
  <g id="그룹_1717" data-name="그룹 1717" transform="translate(-131.589 -206.397)">
    <rect id="사각형_2242" data-name="사각형 2242" width="50" height="50" transform="translate(131.589 206.397)" fill="red" opacity="0"/>
    <g id="그룹_1663" data-name="그룹 1663" transform="translate(163.378 222.819)">
      <circle id="타원_115" data-name="타원 115" cx="9.106" cy="9.106" r="9.106" transform="translate(0 0)" fill="#9dc5f8"/>
    </g>
    <g id="그룹_1665" data-name="그룹 1665" transform="translate(135.525 211.93)">
      <circle id="타원_117" data-name="타원 117" cx="13.008" cy="13.008" r="13.008" fill="#9dc5f8"/>
    </g>
    <g id="그룹_1666" data-name="그룹 1666" transform="translate(153.217 229.892)">
      <path id="패스_621" data-name="패스 621" d="M166.629,239.547h-3.9a9.105,9.105,0,0,0,9.105,9.106h3.9A9.105,9.105,0,0,0,166.629,239.547Z" transform="translate(-162.727 -239.547)" fill="#fff"/>
    </g>
    <g id="그룹_1667" data-name="그룹 1667" transform="translate(153.217 229.892)">
      <path id="패스_622" data-name="패스 622" d="M175.735,248.653h-3.9a9.105,9.105,0,0,1-9.105-9.106h0A34.107,34.107,0,0,1,175.735,248.653Z" transform="translate(-162.727 -239.547)" fill="#e4f0fe"/>
    </g>
    <g id="그룹_1668" data-name="그룹 1668" transform="translate(152.729 229.404)">
      <path id="패스_623" data-name="패스 623" d="M175.473,248.878h-3.9a9.6,9.6,0,0,1-9.593-9.593.488.488,0,0,1,.488-.488h3.9a9.6,9.6,0,0,1,9.593,9.593A.488.488,0,0,1,175.473,248.878Zm-12.506-9.105a8.628,8.628,0,0,0,8.6,8.13h3.4a8.628,8.628,0,0,0-8.6-8.13Z" transform="translate(-161.977 -238.797)" fill="#444"/>
    </g>
    <g id="그룹_1669" data-name="그룹 1669" transform="translate(157.412 231.63)">
      <path id="패스_624" data-name="패스 624" d="M177.99,250.075a.488.488,0,0,1-.375-.176,35.217,35.217,0,0,0-8.2-6.772.488.488,0,0,1,.5-.84,35.54,35.54,0,0,1,8.452,6.987.489.489,0,0,1-.374.8Z" transform="translate(-169.176 -242.22)" fill="#444"/>
    </g>
    <g id="그룹_1724" data-name="그룹 1724" transform="translate(143.465 224.041)">
      <g id="그룹_1693" data-name="그룹 1693" transform="translate(0)">
        <circle id="타원_121" data-name="타원 121" cx="7.154" cy="7.154" r="7.154" fill="#fff"/>
      </g>
      <g id="그룹_1723" data-name="그룹 1723" transform="translate(1.797 1.797)">
        <circle id="타원_121-2" data-name="타원 121" cx="5.357" cy="5.357" r="5.357" transform="translate(0)" fill="#e4f0fe"/>
      </g>
    </g>
    <g id="그룹_1670" data-name="그룹 1670" transform="translate(166.226 233.794)">
      <path id="패스_625" data-name="패스 625" d="M191.835,245.547h3.9a9.105,9.105,0,0,1-9.105,9.106h-3.9A9.106,9.106,0,0,1,191.835,245.547Z" transform="translate(-182.729 -245.547)" fill="#fff"/>
    </g>
    <g id="그룹_1671" data-name="그룹 1671" transform="translate(166.226 233.794)">
      <path id="패스_626" data-name="패스 626" d="M182.729,254.652h3.9a9.105,9.105,0,0,0,9.105-9.106h0A34.107,34.107,0,0,0,182.729,254.652Z" transform="translate(-182.729 -245.547)" fill="#92c6fd"/>
    </g>
    <g id="그룹_1672" data-name="그룹 1672" transform="translate(165.738 233.306)">
      <path id="패스_627" data-name="패스 627" d="M186.369,254.878h-3.9a.488.488,0,0,1-.488-.488,9.6,9.6,0,0,1,9.593-9.593h3.9a.488.488,0,0,1,.488.488A9.6,9.6,0,0,1,186.369,254.878Zm-3.4-.976h3.4a8.629,8.629,0,0,0,8.6-8.13h-3.4A8.629,8.629,0,0,0,182.968,253.9Z" transform="translate(-181.979 -244.797)" fill="#444"/>
    </g>
    <g id="그룹_1673" data-name="그룹 1673" transform="translate(165.739 235.532)">
      <path id="패스_628" data-name="패스 628" d="M182.467,256.075a.488.488,0,0,1-.374-.8,35.577,35.577,0,0,1,8.451-6.987.488.488,0,1,1,.5.84,35.252,35.252,0,0,0-8.2,6.772A.486.486,0,0,1,182.467,256.075Z" transform="translate(-181.979 -248.22)" fill="#444"/>
    </g>
    <g id="그룹_1674" data-name="그룹 1674" transform="translate(150.615 243.551)">
      <path id="패스_629" data-name="패스 629" d="M167.833,260.549h3.9a9.106,9.106,0,0,1-9.106,9.106h-3.9A9.105,9.105,0,0,1,167.833,260.549Z" transform="translate(-158.727 -260.549)" fill="#fff"/>
    </g>
    <g id="그룹_1675" data-name="그룹 1675" transform="translate(150.615 243.551)">
      <path id="패스_630" data-name="패스 630" d="M158.727,269.655h3.9a9.106,9.106,0,0,0,9.106-9.106h0A34.1,34.1,0,0,0,158.727,269.655Z" transform="translate(-158.727 -260.549)" fill="#92c6fd"/>
    </g>
    <g id="그룹_1676" data-name="그룹 1676" transform="translate(150.128 243.064)">
      <path id="패스_631" data-name="패스 631" d="M162.367,269.88h-3.9a.488.488,0,0,1-.488-.488,9.6,9.6,0,0,1,9.593-9.593h3.9a.488.488,0,0,1,.488.488A9.6,9.6,0,0,1,162.367,269.88Zm-3.4-.976h3.4a8.629,8.629,0,0,0,8.6-8.13h-3.4A8.628,8.628,0,0,0,158.966,268.9Z" transform="translate(-157.977 -259.799)" fill="#444"/>
    </g>
    <g id="그룹_1677" data-name="그룹 1677" transform="translate(150.127 245.29)">
      <path id="패스_632" data-name="패스 632" d="M158.464,271.077a.489.489,0,0,1-.374-.8,35.522,35.522,0,0,1,8.452-6.987.488.488,0,0,1,.5.84,35.251,35.251,0,0,0-8.2,6.772A.486.486,0,0,1,158.464,271.077Z" transform="translate(-157.976 -263.222)" fill="#444"/>
    </g>
    <g id="그룹_1678" data-name="그룹 1678" transform="translate(137.606 239.649)">
      <path id="패스_633" data-name="패스 633" d="M142.627,254.549h-3.9a9.106,9.106,0,0,0,9.106,9.106h3.9A9.105,9.105,0,0,0,142.627,254.549Z" transform="translate(-138.725 -254.549)" fill="#fff"/>
    </g>
    <g id="그룹_1679" data-name="그룹 1679" transform="translate(137.606 239.649)">
      <path id="패스_634" data-name="패스 634" d="M151.733,263.655h-3.9a9.106,9.106,0,0,1-9.106-9.106h0A34.092,34.092,0,0,1,151.733,263.655Z" transform="translate(-138.725 -254.549)" fill="#e7e7e7"/>
    </g>
    <g id="그룹_1680" data-name="그룹 1680" transform="translate(137.118 239.161)">
      <path id="패스_635" data-name="패스 635" d="M151.471,263.88h-3.9a9.6,9.6,0,0,1-9.593-9.593.488.488,0,0,1,.488-.488h3.9a9.6,9.6,0,0,1,9.593,9.593A.488.488,0,0,1,151.471,263.88Zm-12.506-9.106a8.628,8.628,0,0,0,8.6,8.13h3.4a8.629,8.629,0,0,0-8.6-8.13Z" transform="translate(-137.975 -253.799)" fill="#444"/>
    </g>
    <g id="그룹_1681" data-name="그룹 1681" transform="translate(141.8 241.387)">
      <path id="패스_636" data-name="패스 636" d="M153.987,265.077a.486.486,0,0,1-.375-.176,35.252,35.252,0,0,0-8.2-6.772.488.488,0,1,1,.5-.84,35.508,35.508,0,0,1,8.451,6.987.488.488,0,0,1-.374.8Z" transform="translate(-145.174 -257.222)" fill="#444"/>
    </g>
    <g id="그룹_1682" data-name="그룹 1682" transform="translate(142.978 255.421)">
      <path id="패스_637" data-name="패스 637" d="M160.48,279.775H147.473a.488.488,0,0,1,0-.976H160.48a.488.488,0,0,1,0,.976Z" transform="translate(-146.985 -278.799)" fill="#444"/>
    </g>
    <g id="그룹_1683" data-name="그룹 1683" transform="translate(158.588 255.421)">
      <path id="패스_638" data-name="패스 638" d="M181.229,279.775h-9.757a.488.488,0,0,1,0-.976h9.757a.488.488,0,0,1,0,.976Z" transform="translate(-170.985 -278.799)" fill="#444"/>
    </g>
    <g id="그룹_1684" data-name="그룹 1684" transform="translate(170.946 255.421)">
      <path id="패스_639" data-name="패스 639" d="M192.424,279.775h-1.951a.488.488,0,0,1,0-.976h1.951a.488.488,0,0,1,0,.976Z" transform="translate(-189.986 -278.799)" fill="#444"/>
    </g>
    <g id="그룹_1720" data-name="그룹 1720" transform="translate(159.076 214.283)">
      <path id="패스_661" data-name="패스 661" d="M7.154,0A7.154,7.154,0,1,1,0,7.154,7.154,7.154,0,0,1,7.154,0Z" transform="translate(0 0)" fill="#fff"/>
      <circle id="타원_118" data-name="타원 118" cx="5.315" cy="5.315" r="5.315" transform="translate(1.839 1.839)" fill="#048df9"/>
    </g>
    <g id="그룹_1687" data-name="그룹 1687" transform="translate(158.588 213.796)">
      <path id="패스_641" data-name="패스 641" d="M178.627,230.083a7.642,7.642,0,1,1,7.642-7.642A7.651,7.651,0,0,1,178.627,230.083Zm0-14.309a6.667,6.667,0,1,0,6.667,6.667A6.674,6.674,0,0,0,178.627,215.775Z" transform="translate(-170.985 -214.799)" fill="#444"/>
    </g>
    <g id="그룹_1721" data-name="그룹 1721" transform="translate(164.535 217.94)">
      <g id="그룹_1690" data-name="그룹 1690" transform="translate(0 0.685)">
        <path id="패스_642" data-name="패스 642" d="M180.473,225.605a1.685,1.685,0,0,1-1.578-1,.321.321,0,0,1,.592-.249,1.058,1.058,0,0,0,.985.6,1,1,0,0,0,1.05-.925c0-.421-.183-.925-1.055-.925a1.513,1.513,0,0,1-1.693-1.567,1.636,1.636,0,0,1,1.693-1.568,1.685,1.685,0,0,1,1.578,1,.321.321,0,0,1-.592.25,1.059,1.059,0,0,0-.985-.605,1,1,0,0,0-1.05.925c0,.422.182.925,1.05.925a1.515,1.515,0,0,1,1.7,1.567A1.635,1.635,0,0,1,180.473,225.605Z" transform="translate(-178.776 -219.978)" fill="#fff"/>
      </g>
      <g id="그룹_1691" data-name="그룹 1691" transform="translate(1.372)">
        <path id="패스_643" data-name="패스 643" d="M182.3,219.706a.321.321,0,0,1-.321-.321V218.7a.321.321,0,1,1,.642,0v.685A.321.321,0,0,1,182.3,219.706Z" transform="translate(-181.979 -218.379)" fill="#fff"/>
      </g>
      <g id="그룹_1692" data-name="그룹 1692" transform="translate(1.372 5.669)">
        <path id="패스_644" data-name="패스 644" d="M182.3,232.947a.321.321,0,0,1-.321-.321v-.686a.321.321,0,1,1,.642,0v.686A.321.321,0,0,1,182.3,232.947Z" transform="translate(-181.979 -231.619)" fill="#fff"/>
      </g>
    </g>
    <g id="그룹_1695" data-name="그룹 1695" transform="translate(142.977 223.553)">
      <path id="패스_646" data-name="패스 646" d="M154.624,245.085a7.642,7.642,0,1,1,7.642-7.642A7.651,7.651,0,0,1,154.624,245.085Zm0-14.309a6.667,6.667,0,1,0,6.667,6.667A6.674,6.674,0,0,0,154.624,230.777Z" transform="translate(-146.982 -229.801)" fill="#444"/>
    </g>
    <g id="그룹_1722" data-name="그룹 1722" transform="translate(149.044 227.944)">
      <g id="그룹_1698" data-name="그룹 1698" transform="translate(0 0.637)">
        <path id="패스_649" data-name="패스 649" d="M156.351,240.207a1.566,1.566,0,0,1-1.465-.927.3.3,0,1,1,.55-.231.984.984,0,0,0,.915.562.924.924,0,0,0,.975-.859c0-.392-.17-.859-.98-.859a1.405,1.405,0,0,1-1.572-1.456,1.519,1.519,0,0,1,1.572-1.456,1.565,1.565,0,0,1,1.465.928.3.3,0,0,1-.55.23.984.984,0,0,0-.915-.562.924.924,0,0,0-.976.86c0,.391.169.859.976.859a1.407,1.407,0,0,1,1.576,1.456A1.519,1.519,0,0,1,156.351,240.207Z" transform="translate(-154.774 -234.98)" fill="#048df9"/>
      </g>
      <g id="그룹_1699" data-name="그룹 1699" transform="translate(1.274)">
        <path id="패스_650" data-name="패스 650" d="M158.275,234.612a.3.3,0,0,1-.3-.3v-.637a.3.3,0,0,1,.6,0v.637A.3.3,0,0,1,158.275,234.612Z" transform="translate(-157.977 -233.379)" fill="#048df9"/>
      </g>
      <g id="그룹_1700" data-name="그룹 1700" transform="translate(1.274 5.267)">
        <path id="패스_651" data-name="패스 651" d="M158.275,247.854a.3.3,0,0,1-.3-.3v-.636a.3.3,0,0,1,.6,0v.636A.3.3,0,0,1,158.275,247.854Z" transform="translate(-157.977 -246.621)" fill="#048df9"/>
      </g>
    </g>
    <g id="그룹_1701" data-name="그룹 1701" transform="translate(165.742 228.104)">
      <path id="패스_652" data-name="패스 652" d="M182.473,265.091a.488.488,0,0,1-.488-.488V237.287a.488.488,0,1,1,.976,0V264.6A.488.488,0,0,1,182.473,265.091Z" transform="translate(-181.985 -236.799)" fill="#444"/>
    </g>
    <g id="그룹_1702" data-name="그룹 1702" transform="translate(150.131 237.862)">
      <path id="패스_653" data-name="패스 653" d="M158.47,270.336a.488.488,0,0,1-.488-.488V252.289a.488.488,0,1,1,.976,0v17.559A.488.488,0,0,1,158.47,270.336Z" transform="translate(-157.982 -251.801)" fill="#444"/>
    </g>
    <g id="그룹_1703" data-name="그룹 1703" transform="translate(152.57 218.196)">
      <circle id="타원_122" data-name="타원 122" cx="1.301" cy="1.301" r="1.301" transform="translate(0)" fill="#fff"/>
    </g>
    <g id="그룹_1704" data-name="그룹 1704" transform="translate(152.083 217.708)">
      <path id="패스_654" data-name="패스 654" d="M162.772,224.391a1.789,1.789,0,1,1,1.789-1.789A1.79,1.79,0,0,1,162.772,224.391Zm0-2.6a.813.813,0,1,0,.813.813A.814.814,0,0,0,162.772,221.79Z" transform="translate(-160.983 -220.814)" fill="#444"/>
    </g>
    <g id="그룹_1705" data-name="그룹 1705" transform="translate(173.385 227.952)">
      <circle id="타원_123" data-name="타원 123" cx="1.301" cy="1.301" r="1.301" transform="translate(0 0)" fill="#fff"/>
    </g>
    <g id="그룹_1706" data-name="그룹 1706" transform="translate(172.897 227.464)">
      <path id="패스_655" data-name="패스 655" d="M194.775,239.391a1.789,1.789,0,1,1,1.789-1.789A1.79,1.79,0,0,1,194.775,239.391Zm0-2.6a.813.813,0,1,0,.813.813A.814.814,0,0,0,194.775,236.79Z" transform="translate(-192.986 -235.814)" fill="#444"/>
    </g>
    <g id="그룹_1707" data-name="그룹 1707" transform="translate(170.133 246.165)">
      <circle id="타원_124" data-name="타원 124" cx="1.301" cy="1.301" r="1.301" fill="#fff"/>
    </g>
    <g id="그룹_1708" data-name="그룹 1708" transform="translate(169.645 245.677)">
      <path id="패스_656" data-name="패스 656" d="M189.774,267.4a1.789,1.789,0,1,1,1.789-1.789A1.791,1.791,0,0,1,189.774,267.4Zm0-2.6a.813.813,0,1,0,.813.813A.814.814,0,0,0,189.774,264.794Z" transform="translate(-187.985 -263.818)" fill="#444"/>
    </g>
    <g id="그룹_1709" data-name="그룹 1709" transform="translate(175.336 250.068)">
      <circle id="타원_125" data-name="타원 125" cx="1.301" cy="1.301" r="1.301" transform="translate(0 0)" fill="#fff"/>
    </g>
    <g id="그룹_1710" data-name="그룹 1710" transform="translate(174.848 249.58)">
      <path id="패스_657" data-name="패스 657" d="M197.775,273.4a1.789,1.789,0,1,1,1.789-1.789A1.79,1.79,0,0,1,197.775,273.4Zm0-2.6a.813.813,0,1,0,.813.813A.814.814,0,0,0,197.775,270.794Z" transform="translate(-195.986 -269.818)" fill="#444"/>
    </g>
    <g id="그룹_1711" data-name="그룹 1711" transform="translate(144.765 215.593)">
      <circle id="타원_126" data-name="타원 126" cx="1.301" cy="1.301" r="1.301" transform="translate(0 0)" fill="#fff"/>
    </g>
    <g id="그룹_1712" data-name="그룹 1712" transform="translate(144.277 215.106)">
      <path id="패스_658" data-name="패스 658" d="M150.77,220.39a1.789,1.789,0,1,1,1.789-1.789A1.79,1.79,0,0,1,150.77,220.39Zm0-2.6a.813.813,0,1,0,.813.813A.814.814,0,0,0,150.77,217.789Z" transform="translate(-148.981 -216.813)" fill="#444"/>
    </g>
    <g id="그룹_1713" data-name="그룹 1713" transform="translate(139.561 222.749)">
      <circle id="타원_127" data-name="타원 127" cx="1.301" cy="1.301" r="1.301" transform="translate(0)" fill="#fff"/>
    </g>
    <g id="그룹_1714" data-name="그룹 1714" transform="translate(139.074 222.261)">
      <path id="패스_659" data-name="패스 659" d="M142.77,231.391a1.789,1.789,0,1,1,1.789-1.789A1.79,1.79,0,0,1,142.77,231.391Zm0-2.6a.813.813,0,1,0,.813.813A.814.814,0,0,0,142.77,228.79Z" transform="translate(-140.981 -227.814)" fill="#444"/>
    </g>
  </g>
</svg>
