<svg xmlns="http://www.w3.org/2000/svg" xmlns:xlink="http://www.w3.org/1999/xlink" width="168" height="227" viewBox="0 0 168 227">
  <defs>
    <clipPath id="clip-path">
      <rect id="사각형_3108" data-name="사각형 3108" width="168" height="227" transform="translate(192 48)" fill="#fff" stroke="#707070" stroke-width="1"/>
    </clipPath>
    <clipPath id="clip-path-2">
      <path id="패스_7932" data-name="패스 7932" d="M191.8,127.14s15.017-17.069,9.263-29.82c0,0,11.839-6.177,20.076.255l-.9,4.062s1.655,3.16,18.055-4.739l-3.611,24.6s-10.833,13.766-23.584,5.3l.226-5.981S202.6,118.075,191.8,127.14Z" transform="translate(-191.804 -94.65)" fill="#fff"/>
    </clipPath>
    <clipPath id="clip-path-3">
      <path id="패스_7951" data-name="패스 7951" d="M205.9,332.628s-3.385,8.237-5.755,8.237-17.754,7.523-15.61,26.141c0,0,5.718,3.16,5.943,5.228l-.9,3.235,1.73.715,1.5-3.95,5.379,1.58s-2.445-19.409,10.532-24.6c0,0-1.542,17.528,24.75,14.03l2.332-3.31,4.89-.113.94-2.407-3.235-.639,1.467-4.476s-12.846-.127-17.7-8.929Z" transform="translate(-184.333 -332.628)" fill="#fff"/>
    </clipPath>
    <clipPath id="clip-path-4">
      <path id="패스_7997" data-name="패스 7997" d="M285.7,154.929s15.046-7.448,17.3-16.325c0,0,13.691,8.877,12.563,25.577,0,0-11.209,3.31-16.174,6.093C299.387,170.275,287.276,166.212,285.7,154.929Z" transform="translate(-285.696 -138.604)" fill="#fff"/>
    </clipPath>
    <clipPath id="clip-path-5">
      <path id="패스_8001" data-name="패스 8001" d="M224.692,216.3a65.585,65.585,0,0,1,1.749-9.366c2.209-8.4,4.209-16,10.607-19.634.776-.441,6.719-3.713,11.679-1.354,10.578,5.031,3.187,29.257,1.911,31.851-.211.429-.747,1.518-1.686,1.663a1.959,1.959,0,0,1-1.967-1.09,1.416,1.416,0,0,1-.064-.941,2.893,2.893,0,0,1-2.788,2.156,2.955,2.955,0,0,1-2.233-1.366,1.9,1.9,0,0,1-2.088,1.862,1.876,1.876,0,0,1-1.467-1.975,2.62,2.62,0,0,1-3.116,1.968,2.426,2.426,0,0,1-1.482-2.024c-.947,1.449-2.385,1.849-3.075,1.382a1.866,1.866,0,0,1-.564-1.5,2.252,2.252,0,0,1-1.029.722,1.7,1.7,0,0,1-1.058.068A1.5,1.5,0,0,1,227,216.812a1.209,1.209,0,0,1-.762.959,1.178,1.178,0,0,1-1.552-1.467Z" transform="translate(-224.635 -185.104)" fill="#f1d3b1"/>
    </clipPath>
    <clipPath id="clip-path-6">
      <path id="패스_8005" data-name="패스 8005" d="M229.211,205.993s1.478-3.751-7.7-5.463-11.141.8-11.391,1.723-1.315,11.391,2.356,11.211c0,0,2.385.254,3.135-3.83,0,0,16.739,8.866,19.3,2.745C236.525,208.527,233.422,205.876,229.211,205.993Z" transform="translate(-209.783 -199.946)" fill="#fd9f3b"/>
    </clipPath>
  </defs>
  <g id="마스크_그룹_3" data-name="마스크 그룹 3" transform="translate(-192 -48)" clip-path="url(#clip-path)">
    <g id="그룹_3799" data-name="그룹 3799" transform="translate(-1129.636 -3293.561)">
      <ellipse id="타원_129" data-name="타원 129" cx="34.363" cy="3.933" rx="34.363" ry="3.933" transform="translate(1396.855 3534.557)" fill="#01559b" opacity="0.25"/>
      <g id="그룹_2934" data-name="그룹 2934" transform="translate(1377.307 3391.162) rotate(45)">
        <path id="패스_8021" data-name="패스 8021" d="M7.472,6.25l3.164-2.486-3.905.241L5.408,0,4.2,4.162,0,4.421l3.487,2.2L2.448,10.2,5.441,7.846,8.671,9.881Z" transform="translate(34.483 8.068)" fill="#f9050f"/>
        <path id="패스_8022" data-name="패스 8022" d="M6.338,5.3,9.022,3.193l-3.313.2L4.587,0,3.562,3.53,0,3.75,2.958,5.612,2.077,8.65,4.615,6.656l2.74,1.725Z" transform="translate(6.663 9.553)" fill="#fff"/>
        <path id="패스_8023" data-name="패스 8023" d="M5.385,4.5l2.28-1.792-2.815.174L3.9,0l-.87,3L0,3.186,2.513,4.769,1.764,7.35,3.921,5.655,6.25,7.121Z" transform="translate(93.121 56.228)" fill="#01559b"/>
        <path id="패스_8024" data-name="패스 8024" d="M7.692,5.53l2.437-3.2L6.41,3.544,4.121,0,4,4.332,0,5.639,3.928,6.887l-.1,3.727,2.3-3.028L9.766,8.742Z" transform="translate(31.933 56.779)" fill="#f9050f"/>
        <path id="패스_8025" data-name="패스 8025" d="M6.525,4.69,8.591,1.975,5.437,3.006,3.5,0l-.1,3.674L0,4.783,3.332,5.842,3.243,9,5.2,6.434l3.086.981Z" transform="translate(67.341 69.801)" fill="#fff"/>
        <path id="패스_8026" data-name="패스 8026" d="M5.544,3.985,7.3,1.678l-2.68.876L2.97,0,2.883,3.122,0,4.064l2.831.9L2.755,7.65,4.416,5.467,7.038,6.3Z" transform="translate(66.522 101.807)" fill="#01559b"/>
        <path id="패스_8027" data-name="패스 8027" d="M0,0" transform="translate(16.216 0)" fill="none" stroke="#fff" stroke-miterlimit="10" stroke-width="1"/>
        <path id="패스_8028" data-name="패스 8028" d="M0,0" transform="translate(24.011 25.103)" fill="none" stroke="#fff" stroke-miterlimit="10" stroke-width="1"/>
        <path id="패스_8029" data-name="패스 8029" d="M0,0" transform="translate(7.952 38.824)" fill="none" stroke="#fff" stroke-miterlimit="10" stroke-width="1"/>
        <path id="패스_8030" data-name="패스 8030" d="M0,0" transform="translate(21.049 62.524)" fill="none" stroke="#fff" stroke-miterlimit="10" stroke-width="1"/>
        <path id="패스_8031" data-name="패스 8031" d="M0,0" transform="translate(0.624 72.347)" fill="none" stroke="#fff" stroke-miterlimit="10" stroke-width="1"/>
        <path id="패스_8032" data-name="패스 8032" d="M0,0" transform="translate(15.436 94.02)" fill="none" stroke="#fff" stroke-miterlimit="10" stroke-width="1"/>
        <path id="패스_8033" data-name="패스 8033" d="M0,0" transform="translate(0 116.004)" fill="none" stroke="#fff" stroke-miterlimit="10" stroke-width="1"/>
        <path id="패스_8034" data-name="패스 8034" d="M0,0" transform="translate(24.635 121.306)" fill="none" stroke="#fff" stroke-miterlimit="10" stroke-width="1"/>
      </g>
      <g id="그룹_2935" data-name="그룹 2935" transform="translate(1467.882 3516.512) rotate(-135)">
        <path id="패스_8021-2" data-name="패스 8021" d="M7.472,6.25l3.164-2.486-3.905.241L5.408,0,4.2,4.162,0,4.421l3.487,2.2L2.448,10.2,5.441,7.846,8.671,9.881Z" transform="translate(33.996 0)" fill="#f9050f"/>
        <path id="패스_8022-2" data-name="패스 8022" d="M6.338,5.3,9.022,3.193l-3.313.2L4.587,0,3.562,3.53,0,3.75,2.958,5.612,2.077,8.65,4.615,6.656l2.74,1.725Z" transform="translate(0 30.079)" fill="#fff"/>
        <path id="패스_8023-2" data-name="패스 8023" d="M5.385,4.5l2.28-1.792-2.815.174L3.9,0l-.87,3L0,3.186,2.513,4.769,1.764,7.35,3.921,5.655,6.25,7.121Z" transform="translate(18.635 39.848)" fill="#01559b"/>
        <path id="패스_8024-2" data-name="패스 8024" d="M7.692,5.53l2.437-3.2L6.41,3.544,4.121,0,4,4.332,0,5.639,3.928,6.887l-.1,3.727,2.3-3.028L9.766,8.742Z" transform="translate(59.369 77.317)" fill="#f9050f"/>
        <path id="패스_8025-2" data-name="패스 8025" d="M6.525,4.69,8.591,1.975,5.437,3.006,3.5,0l-.1,3.674L0,4.783,3.332,5.842,3.243,9,5.2,6.434l3.086.981Z" transform="translate(106.544 70.504)" fill="#fff"/>
        <path id="패스_8026-2" data-name="패스 8026" d="M5.544,3.985,7.3,1.678l-2.68.876L2.97,0,2.883,3.122,0,4.064l2.831.9L2.755,7.65,4.416,5.467,7.038,6.3Z" transform="translate(98.899 86.946)" fill="#01559b"/>
        <path id="패스_8027-2" data-name="패스 8027" d="M0,0" transform="translate(23.596 1.988)" fill="none" stroke="#fff" stroke-miterlimit="10" stroke-width="1"/>
        <path id="패스_8028-2" data-name="패스 8028" d="M0,0" transform="translate(31.392 27.091)" fill="none" stroke="#fff" stroke-miterlimit="10" stroke-width="1"/>
        <path id="패스_8029-2" data-name="패스 8029" d="M0,0" transform="translate(15.333 40.812)" fill="none" stroke="#fff" stroke-miterlimit="10" stroke-width="1"/>
        <path id="패스_8030-2" data-name="패스 8030" d="M0,0" transform="translate(28.43 64.512)" fill="none" stroke="#fff" stroke-miterlimit="10" stroke-width="1"/>
        <path id="패스_8031-2" data-name="패스 8031" d="M0,0" transform="translate(8.004 74.335)" fill="none" stroke="#fff" stroke-miterlimit="10" stroke-width="1"/>
        <path id="패스_8032-2" data-name="패스 8032" d="M0,0" transform="translate(22.817 96.008)" fill="none" stroke="#fff" stroke-miterlimit="10" stroke-width="1"/>
        <path id="패스_8033-2" data-name="패스 8033" d="M0,0" transform="translate(7.381 117.993)" fill="none" stroke="#fff" stroke-miterlimit="10" stroke-width="1"/>
        <path id="패스_8034-2" data-name="패스 8034" d="M0,0" transform="translate(32.016 123.294)" fill="none" stroke="#fff" stroke-miterlimit="10" stroke-width="1"/>
      </g>
      <g id="그룹_2936" data-name="그룹 2936" transform="translate(1386.867 3401.195)">
        <g id="그룹_3797" data-name="그룹 3797" transform="translate(0)">
          <g id="그룹_3786" data-name="그룹 3786" transform="translate(22.676 2.49)">
            <path id="패스_7921" data-name="패스 7921" d="M191.8,127.14s15.017-17.069,9.263-29.82c0,0,11.839-6.177,20.076.255l-.9,4.062s1.655,3.16,18.055-4.739l-3.611,24.6s-10.833,13.766-23.584,5.3l.226-5.981S202.6,118.075,191.8,127.14Z" transform="translate(-191.804 -94.65)" fill="#fff"/>
            <g id="그룹_3785" data-name="그룹 3785" clip-path="url(#clip-path-2)">
              <path id="패스_7922" data-name="패스 7922" d="M212.325,97.653s11.134-6.77,20.612-1.053l1.5-4.062s-3.31-8.726-23.622-1.354Z" transform="translate(-203.598 -90.665)" fill="#f9050f"/>
              <path id="패스_7923" data-name="패스 7923" d="M212.8,119.464s9.178-7.372,19.86-2.859l-.6,3.761a20.223,20.223,0,0,0-19.108,2.407Z" transform="translate(-204.827 -107.36)" fill="#f9050f"/>
              <path id="패스_7924" data-name="패스 7924" d="M207.762,138.773a33.271,33.271,0,0,1,19.709-3.009l-.752,3.762s-8.726-3.762-19.86,2.708Z" transform="translate(-201.141 -119.898)" fill="#f9050f"/>
              <path id="패스_7925" data-name="패스 7925" d="M191.057,155.657S203.771,146.4,214,152.573l-1.016,4.288s-5.078-5.416-25.54,5.868Z" transform="translate(-189.101 -129.26)" fill="#f9050f"/>
              <path id="패스_7926" data-name="패스 7926" d="M235.383,168.179l4.965-4.815,2.107,1.2-6.018,6.169Z" transform="translate(-218.833 -137.268)" fill="#f9050f"/>
              <path id="패스_7927" data-name="패스 7927" d="M266,97.35l-.9,3.461s15.5,1.655,21.214-5.116l-1.053-6.018S273.22,99.758,266,97.35" transform="translate(-237.261 -91.565)" fill="#f9050f"/>
              <path id="패스_7928" data-name="패스 7928" d="M262.037,123.984s14.744,4.363,23.32-3.009v4.965s-11.886,7.373-24.223.9Z" transform="translate(-234.804 -110.977)" fill="#f9050f"/>
              <path id="패스_7929" data-name="패스 7929" d="M258.17,146.33s12.036,5.868,20.311.6l-.6,4.213s-10.983,6.846-20.312-1.429Z" transform="translate(-232.593 -126.703)" fill="#f9050f"/>
              <path id="패스_7930" data-name="패스 7930" d="M240.488,165.8l-8.275,7.071c23.02,10.08,27.533-7.523,27.533-7.523C247.108,173.471,240.488,165.8,240.488,165.8Z" transform="translate(-216.867 -138.497)" fill="#f9050f"/>
              <path id="패스_7931" data-name="패스 7931" d="M305.477,164.7l-.144.092.144-.092Z" transform="translate(-262.218 -138.099)" fill="#f9050f"/>
            </g>
          </g>
          <path id="패스_7933" data-name="패스 7933" d="M215.522,109.2s8.275-1.805,12.939-1.354l1.956-13.691S226.152,90.58,215,96.079A18.994,18.994,0,0,1,215.522,109.2Z" transform="translate(-183.518 -91.144)" fill="#01559b"/>
          <path id="패스_7934" data-name="패스 7934" d="M257.469,334.708s35.771,11.4,32.95,14.669-25.051-3.949-32.385-11.171Z" transform="translate(-209.856 -241.05)" fill="#4b2204"/>
          <path id="패스_7935" data-name="패스 7935" d="M254.581,335.3s34.046,14.163,30.323,16.758-31-13.147-31-13.147Z" transform="translate(-207.645 -241.418)" fill="#4b2204"/>
          <path id="패스_7936" data-name="패스 7936" d="M264.63,271.486s-6.521,8.947,2.6,16.4c9.892,8.087,9.957,11.132,9.957,11.132l-24.457-3.177s-11.115-14.274-1.335-25.709l9.46-8.369Z" transform="translate(-203.589 -195.808)" fill="#01559b"/>
          <path id="패스_7937" data-name="패스 7937" d="M263.34,261.763l1.467,8.181-12.864,14.782S247.543,275.135,263.34,261.763Z" transform="translate(-206.079 -195.808)" fill="#01559b"/>
          <path id="패스_7938" data-name="패스 7938" d="M277.99,261.763s23.49,4.758,23.64,8.068-6.018,17.453-6.018,17.453l-11.435-4.514,3.31-8.125L275,274.8Z" transform="translate(-220.729 -195.808)" fill="#01559b"/>
          <path id="패스_7939" data-name="패스 7939" d="M155.917,249.7s-10.833-12.187-6.319-14.669,16.023.226,13.992,2.257-8.124,2.031-8.124,2.031,8.35.3,9.027,2.633a25.149,25.149,0,0,1,.677,5.717Z" transform="translate(-142.269 -178.613)" fill="#713008"/>
          <path id="패스_7940" data-name="패스 7940" d="M159.715,258.341l11.735-3.46,1.5,10.531,13.024-4.363-3.846,14.142s-15.046,5.567-16.4,2.107S159.715,258.341,159.715,258.341Z" transform="translate(-149.226 -191.539)" fill="#01559b"/>
          <path id="패스_7941" data-name="패스 7941" d="M223.147,271.123l3.827,26.48-3.821,5.061S215.258,277.893,223.147,271.123Z" transform="translate(-186.395 -201.613)" fill="#01559b"/>
          <path id="패스_7942" data-name="패스 7942" d="M226.722,278.117s-5.078,7.165,1.749,20.086l.113,5.078s1.975-4.4,2.652-4.514,6.205,4.16,6.205,4.16-5.98-12.454.735-20.916l-3.047-4.8Z" transform="translate(-189.659 -205.391)" fill="#fff"/>
          <path id="패스_7943" data-name="패스 7943" d="M219.71,264.883a12.733,12.733,0,0,0-2.952,2.123,13.762,13.762,0,0,0-3.917,7.934,14.819,14.819,0,0,0-.05,3.816,16.815,16.815,0,0,0,2.029,6.436c1.836,3.286,4.173,4.713,4.248,5.391.113,1.015-.374,7.08-.374,7.08l2.99-2.821s.169-5.078-.9-6.883-4.909-10.438-.9-17.1Z" transform="translate(-182.083 -197.743)" fill="#01559b"/>
          <path id="패스_7944" data-name="패스 7944" d="M178.74,423.869s-10.746-8.067-13.428-5.755c-3.272,2.821,14.782,13.654,20.989,11.4S178.74,423.869,178.74,423.869Z" transform="translate(-152.454 -292.522)" fill="#4b2204"/>
          <path id="패스_7945" data-name="패스 7945" d="M316.554,380.8s-13.879,20.086-8.689,20.876,10.946-18.619,10.946-18.619S319.6,379.331,316.554,380.8Z" transform="translate(-240.392 -269.424)" fill="#4b2204"/>
          <g id="그룹_3788" data-name="그룹 3788" transform="translate(19.838 92.868)">
            <path id="패스_7946" data-name="패스 7946" d="M205.9,332.628s-3.385,8.237-5.755,8.237-17.754,7.523-15.61,26.141c0,0,5.718,3.16,5.943,5.228l-.9,3.235,1.73.715,1.5-3.95,5.379,1.58s-2.445-19.409,10.532-24.6c0,0-1.542,17.528,24.75,14.03l2.332-3.31,4.89-.113.94-2.407-3.235-.639,1.467-4.476s-12.846-.127-17.7-8.929Z" transform="translate(-184.333 -332.628)" fill="#fff"/>
            <g id="그룹_3787" data-name="그룹 3787" clip-path="url(#clip-path-3)">
              <path id="패스_7947" data-name="패스 7947" d="M265.908,344.674s14.669,14.895,22.869,14.368l-1.2,3.385s-20.462,3.234-27.233-18.807Z" transform="translate(-231.475 -339.446)" fill="#f9050f"/>
              <path id="패스_7948" data-name="패스 7948" d="M239.822,329.359s-3.611,27.082,34.981,26.63l-1.354,4.74s-35.206,5.3-39.156-30.185Z" transform="translate(-215.32 -330.601)" fill="#f9050f"/>
              <path id="패스_7949" data-name="패스 7949" d="M216.4,363.232s-17.152,12.413-18.054,37.238l11.735,2.257s-9.253-13.541,8.124-35.432Z" transform="translate(-193.021 -351.609)" fill="#f9050f"/>
              <path id="패스_7950" data-name="패스 7950" d="M192.265,335.836v7.6a.741.741,0,0,1-.687.739c-2.489.186-11.2,2.723-17.142,28.218l-7-4.288s4.965-26.4,20.763-28.436v-4.965Z" transform="translate(-173.856 -333.918)" fill="#f9050f"/>
            </g>
          </g>
          <path id="패스_7952" data-name="패스 7952" d="M294.758,317.078s-4.664,5.793-1.73,8.049,3.611-1.806,3.611-1.806-2.031,3.837,1.128,5.191,4.063-2.031,4.063-2.031-2.483,3.385.226,3.611,4.138-8.5,4.138-8.5Z" transform="translate(-231.309 -230.115)" fill="#713008"/>
          <path id="패스_7953" data-name="패스 7953" d="M163.52,97.084l-29.082,95.443-2.342-.386,30.281-95.814,1.422,2.063" transform="translate(-132.096 -93.2)" fill="#01559b"/>
          <ellipse id="타원_366" data-name="타원 366" cx="2.483" cy="2.595" rx="2.483" ry="2.595" transform="translate(29.22)" fill="#fd9f3b"/>
          <g id="그룹_3789" data-name="그룹 3789" transform="translate(33.157 3.931)">
            <path id="패스_7954" data-name="패스 7954" d="M234.37,104.456l.58-.468-.732.066-.271-.718-.2.76-.787.071.667.378-.175.654.549-.443.618.35Z" transform="translate(-227.809 -101.477)" fill="#fff"/>
            <path id="패스_7955" data-name="패스 7955" d="M241.11,104.236l.58-.468-.732.066-.271-.718-.2.76-.787.071.667.378-.175.654.549-.443.618.35Z" transform="translate(-231.99 -101.341)" fill="#fff"/>
            <path id="패스_7956" data-name="패스 7956" d="M247.85,104.017l.58-.468-.732.066-.271-.718-.2.76-.787.071.667.378-.175.654.549-.443.618.35Z" transform="translate(-236.17 -101.205)" fill="#fff"/>
            <path id="패스_7957" data-name="패스 7957" d="M220.891,104.895l.58-.468-.732.066-.271-.718-.2.76-.787.071.667.378-.175.654.549-.443.618.35Z" transform="translate(-219.449 -101.749)" fill="#fff"/>
            <path id="패스_7958" data-name="패스 7958" d="M227.631,104.675l.58-.468-.732.066-.271-.718-.2.76-.787.071.667.378-.175.654.549-.443.618.35Z" transform="translate(-223.629 -101.613)" fill="#fff"/>
            <path id="패스_7959" data-name="패스 7959" d="M234.3,114.027l.58-.468-.732.066-.271-.718-.2.76-.787.071.667.378-.175.654.549-.443.618.35Z" transform="translate(-227.763 -107.414)" fill="#fff"/>
            <path id="패스_7960" data-name="패스 7960" d="M241.035,113.807l.58-.468-.732.066-.271-.718-.2.76-.787.071.667.378-.175.654.549-.443.618.35Z" transform="translate(-231.943 -107.277)" fill="#fff"/>
            <path id="패스_7961" data-name="패스 7961" d="M247.775,113.588l.58-.468-.732.066-.271-.718-.2.76-.787.071.667.378-.175.654.549-.443.618.35Z" transform="translate(-236.123 -107.141)" fill="#fff"/>
            <path id="패스_7962" data-name="패스 7962" d="M220.816,114.466l.58-.468-.732.066-.271-.718-.2.76-.787.071.667.378-.175.654.549-.443.618.35Z" transform="translate(-219.403 -107.686)" fill="#fff"/>
            <path id="패스_7963" data-name="패스 7963" d="M227.556,114.246l.58-.468-.732.066-.271-.718-.2.76-.787.071.667.378-.175.654.549-.443.618.35Z" transform="translate(-223.583 -107.55)" fill="#fff"/>
            <path id="패스_7964" data-name="패스 7964" d="M234.592,122.821l.58-.468-.732.066-.271-.718-.2.76-.787.071.667.378-.175.654.549-.443.618.35Z" transform="translate(-227.947 -112.868)" fill="#fff"/>
            <path id="패스_7965" data-name="패스 7965" d="M241.331,122.6l.58-.468-.732.066-.271-.718-.2.76-.787.071.667.378-.175.654.549-.443.618.35Z" transform="translate(-232.127 -112.732)" fill="#fff"/>
            <path id="패스_7966" data-name="패스 7966" d="M248.071,122.382l.58-.468-.732.066-.271-.718-.2.76-.787.071.667.378-.175.654.549-.443.618.35Z" transform="translate(-236.307 -112.595)" fill="#fff"/>
            <path id="패스_7967" data-name="패스 7967" d="M221.112,123.26l.58-.468-.732.066-.271-.718-.2.76-.787.071.667.378-.175.654.549-.443.618.35Z" transform="translate(-219.586 -113.14)" fill="#fff"/>
            <path id="패스_7968" data-name="패스 7968" d="M227.852,123.04l.58-.468-.732.066-.271-.718-.2.76-.787.071.667.378-.175.654.549-.443.618.35Z" transform="translate(-223.766 -113.004)" fill="#fff"/>
            <path id="패스_7969" data-name="패스 7969" d="M230.416,109.6l.58-.468-.732.066-.271-.718-.2.76-.787.071.667.378-.175.654.549-.443.618.35Z" transform="translate(-225.357 -104.667)" fill="#fff"/>
            <path id="패스_7970" data-name="패스 7970" d="M237.156,109.379l.58-.468-.732.066-.271-.718-.2.76-.787.071.667.378-.175.654.549-.443.618.35Z" transform="translate(-229.537 -104.531)" fill="#fff"/>
            <path id="패스_7971" data-name="패스 7971" d="M243.9,109.159l.58-.468-.732.066-.271-.718-.2.76-.787.071.667.378-.175.654.549-.443.618.35Z" transform="translate(-233.717 -104.395)" fill="#fff"/>
            <path id="패스_7972" data-name="패스 7972" d="M223.676,109.818l.58-.468-.732.066-.271-.718-.2.76-.787.071.667.378-.175.654.549-.443.618.35Z" transform="translate(-221.176 -104.803)" fill="#fff"/>
            <path id="패스_7973" data-name="패스 7973" d="M230.093,100l.58-.468-.732.066-.271-.718-.2.76-.787.071.667.378-.175.654.549-.443.618.35Z" transform="translate(-225.156 -98.715)" fill="#fff"/>
            <path id="패스_7974" data-name="패스 7974" d="M236.832,99.782l.58-.468-.732.066-.271-.718-.2.76-.787.071.667.378-.175.654.549-.443.618.35Z" transform="translate(-229.337 -98.579)" fill="#fff"/>
            <path id="패스_7975" data-name="패스 7975" d="M243.572,99.563l.58-.468-.732.066-.271-.718-.2.76-.787.071.667.378-.175.654.549-.443.618.35Z" transform="translate(-233.517 -98.442)" fill="#fff"/>
            <path id="패스_7976" data-name="패스 7976" d="M223.353,100.221l.58-.468-.732.066-.271-.718-.2.76-.787.071.667.378-.175.654.549-.443.618.35Z" transform="translate(-220.976 -98.851)" fill="#fff"/>
            <path id="패스_7977" data-name="패스 7977" d="M230.723,118.736l.58-.468-.732.066-.271-.718-.2.76-.787.071.667.378-.175.654.549-.443.618.35Z" transform="translate(-225.547 -110.334)" fill="#fff"/>
            <path id="패스_7978" data-name="패스 7978" d="M237.463,118.517l.58-.468-.732.066-.271-.718-.2.76-.787.071.667.378-.175.654.549-.443.618.35Z" transform="translate(-229.728 -110.198)" fill="#fff"/>
            <path id="패스_7979" data-name="패스 7979" d="M244.2,118.3l.58-.468-.732.066-.271-.718-.2.76-.787.071.667.378-.175.654.549-.443.618.35Z" transform="translate(-233.908 -110.062)" fill="#fff"/>
            <path id="패스_7980" data-name="패스 7980" d="M223.984,118.956l.58-.468-.732.066-.271-.718-.2.76-.787.071.667.378-.175.654.549-.443.618.35Z" transform="translate(-221.367 -110.471)" fill="#fff"/>
            <path id="패스_7981" data-name="패스 7981" d="M231.006,127.148l.58-.468-.732.066-.271-.718-.2.761-.787.071.667.378-.175.654.549-.443.618.35Z" transform="translate(-225.723 -115.551)" fill="#fff"/>
            <path id="패스_7982" data-name="패스 7982" d="M237.746,126.928l.58-.468-.732.066-.271-.718-.2.761-.787.071.667.378-.175.654.549-.443.618.35Z" transform="translate(-229.903 -115.415)" fill="#fff"/>
            <path id="패스_7983" data-name="패스 7983" d="M244.486,126.709l.58-.468-.732.066-.271-.718-.2.76-.787.071.667.378-.175.654.549-.443.618.35Z" transform="translate(-234.083 -115.279)" fill="#fff"/>
            <path id="패스_7984" data-name="패스 7984" d="M224.267,127.367l.58-.468-.732.066-.271-.718-.2.76-.787.071.667.378-.175.654.549-.443.618.35Z" transform="translate(-221.543 -115.688)" fill="#fff"/>
          </g>
          <path id="패스_7985" data-name="패스 7985" d="M265.968,259.961s5.2,7.984-.226,14.237-11.224,17.626-11.224,17.626S244.651,272.841,265.968,259.961Z" transform="translate(-206.611 -194.69)" fill="none" stroke="#4b2204" stroke-miterlimit="10" stroke-width="0.959"/>
          <path id="패스_7986" data-name="패스 7986" d="M219.309,261.547s-9.868,9.491-6.1,17.551a54.961,54.961,0,0,0,8.21,12.881s.566-3.741-.847-6.089-4.5-10.181-1.564-16.283Z" transform="translate(-181.872 -195.674)" fill="none" stroke="#4b2204" stroke-miterlimit="10" stroke-width="0.959"/>
          <g id="그룹_3791" data-name="그룹 3791" transform="translate(58.333 19.183)">
            <path id="패스_7987" data-name="패스 7987" d="M285.7,154.929s15.046-7.448,17.3-16.325c0,0,13.691,8.877,12.563,25.577,0,0-11.209,3.31-16.174,6.093C299.387,170.275,287.276,166.212,285.7,154.929Z" transform="translate(-285.696 -138.604)" fill="#fff"/>
            <g id="그룹_3790" data-name="그룹 3790" clip-path="url(#clip-path-4)">
              <path id="패스_7988" data-name="패스 7988" d="M301.091,150.214l11.585-12.939,2.257,1.429-12.187,13.165Z" transform="translate(-295.244 -137.78)" fill="#f9050f"/>
              <path id="패스_7989" data-name="패스 7989" d="M309.014,159.3,321.5,146.585l2.633,3.46-13.767,12.112Z" transform="translate(-300.159 -143.554)" fill="#f9050f"/>
              <path id="패스_7990" data-name="패스 7990" d="M315.155,171.565l14.218-11.51,1.655,3.16-14.97,11.058Z" transform="translate(-303.967 -151.909)" fill="#f9050f"/>
              <path id="패스_7991" data-name="패스 7991" d="M324.861,187.69,338.7,177.685l.978,3.987-13.39,8.049Z" transform="translate(-309.987 -162.843)" fill="#f9050f"/>
              <path id="패스_7992" data-name="패스 7992" d="M329.813,205.191l13.315-5.717-.075,2.633-12.939,4.815Z" transform="translate(-313.059 -176.357)" fill="#f9050f"/>
              <path id="패스_7993" data-name="패스 7993" d="M271.236,171.42l9.513-4.886s14.171,12.8,15.162,23.061l-8.423,4.4Z" transform="translate(-276.728 -155.927)" fill="#01559e"/>
              <path id="패스_7994" data-name="패스 7994" d="M296.105,179.693l2.127.393-1.485-1.489,1.145-1.957-2.108.992-1.6-1.6.354,2.187-1.814.853,2.012.371.328,2.026Z" transform="translate(-290.057 -161.816)" fill="#fff"/>
              <path id="패스_7995" data-name="패스 7995" d="M307.413,192.944l2.127.393-1.485-1.489,1.145-1.957-2.107.992-1.6-1.6.354,2.187-1.814.853,2.012.371.328,2.026Z" transform="translate(-297.07 -170.035)" fill="#fff"/>
              <path id="패스_7996" data-name="패스 7996" d="M317.515,207.522l2.127.393-1.485-1.489,1.145-1.957-2.107.992-1.6-1.6.354,2.187-1.814.853,2.012.371.327,2.026Z" transform="translate(-303.336 -179.076)" fill="#fff"/>
            </g>
          </g>
          <path id="패스_7998" data-name="패스 7998" d="M262.689,169.566s-3.658-12.445,1.717-12.152,8.286,12.372,11.2,13.982,16.5,10.762,14.78,18.083-16.8-3.514-16.8-3.514l-11.2-16.691" transform="translate(-212.339 -131.084)" fill="#fff"/>
          <g id="그룹_3793" data-name="그룹 3793" transform="translate(35.144 36.842)">
            <path id="패스_7999" data-name="패스 7999" d="M224.692,216.3a65.585,65.585,0,0,1,1.749-9.366c2.209-8.4,4.209-16,10.607-19.634.776-.441,6.719-3.713,11.679-1.354,10.578,5.031,3.187,29.257,1.911,31.851-.211.429-.747,1.518-1.686,1.663a1.959,1.959,0,0,1-1.967-1.09,1.416,1.416,0,0,1-.064-.941,2.893,2.893,0,0,1-2.788,2.156,2.955,2.955,0,0,1-2.233-1.366,1.9,1.9,0,0,1-2.088,1.862,1.876,1.876,0,0,1-1.467-1.975,2.62,2.62,0,0,1-3.116,1.968,2.426,2.426,0,0,1-1.482-2.024c-.947,1.449-2.385,1.849-3.075,1.382a1.866,1.866,0,0,1-.564-1.5,2.252,2.252,0,0,1-1.029.722,1.7,1.7,0,0,1-1.058.068A1.5,1.5,0,0,1,227,216.812a1.209,1.209,0,0,1-.762.959,1.178,1.178,0,0,1-1.552-1.467Z" transform="translate(-224.635 -185.104)" fill="#f1d3b1"/>
            <g id="그룹_3792" data-name="그룹 3792" clip-path="url(#clip-path-5)">
              <path id="패스_8000" data-name="패스 8000" d="M233.309,215.316a2.086,2.086,0,0,1-.6-.084,2.256,2.256,0,0,1-1.509-1.85l-.09-.569-.355.481a3.332,3.332,0,0,1-2.505,1.469,1.22,1.22,0,0,1-.624-.148c-.506-.3-.533-1.082-.53-1.314l.01-.621-.442.482a2.309,2.309,0,0,1-1.049.654l-.015,0a2.185,2.185,0,0,1-.641.11,1.585,1.585,0,0,1-.393-.049,1.207,1.207,0,0,1-1.016-1.5l-.191.24c-.1.3-1.216-.4-1.355-.4-.27,0-.526.69-.723.535a.905.905,0,0,1-.307-1.025l.007-.021,0-.021a58.943,58.943,0,0,1,1.967-9.335,65.706,65.706,0,0,1,4.2-11.566,17.269,17.269,0,0,1,7.656-7.935,20.553,20.553,0,0,1,8.582-2.173,11.2,11.2,0,0,1,4.371.826,9.178,9.178,0,0,1,5.031,5.375c3.464,8.823-1.835,24.108-2.988,26.185-.215.388-.786,1.418-1.721,1.545a1.576,1.576,0,0,1-.214.014,2.019,2.019,0,0,1-1.746-.979,1.079,1.079,0,0,1-.067-.775l-.177.5c-.4,1.168-1.841,1.362-3.1,1.363l-.092,0a3.1,3.1,0,0,1-2.322-1.265l-.422-.6-.028.709a1.834,1.834,0,0,1-1.832,1.674,1.633,1.633,0,0,1-.241-.018,1.7,1.7,0,0,1-1.452-1.751l-.23.663C235.743,215.4,234.287,215.316,233.309,215.316Z" transform="translate(-222.333 -182.358)" fill="#fff" opacity="0.34"/>
            </g>
          </g>
          <path id="패스_8002" data-name="패스 8002" d="M265.677,177.324l18.35,17.522s-7.44-16.576-10.708-18.792S265.677,177.324,265.677,177.324Z" transform="translate(-214.946 -142.191)" fill="#fff"/>
          <g id="그룹_3795" data-name="그룹 3795" transform="translate(29.503 42.479)">
            <path id="패스_8003" data-name="패스 8003" d="M229.211,205.993s1.478-3.751-7.7-5.463-11.141.8-11.391,1.723-1.315,11.391,2.356,11.211c0,0,2.385.254,3.135-3.83,0,0,16.739,8.866,19.3,2.745C236.525,208.527,233.422,205.876,229.211,205.993Z" transform="translate(-209.783 -199.946)" fill="#fd9f3b"/>
            <g id="그룹_3794" data-name="그룹 3794" clip-path="url(#clip-path-6)">
              <path id="패스_8004" data-name="패스 8004" d="M211.412,210.728l.752-11.133c2.031-.828,4.571-.708,7.749-.677,7.9.075,9.977.877,12.563,2.934.4-1.73-.777-1.805-.376-3.536-3.094-1.921-3.681-1.293-9.328-2.934a53.045,53.045,0,0,0-14.82-2.107q-.15,9.291-.3,18.581Z" transform="translate(-208.461 -195.808)" fill="#fff" opacity="0.34"/>
            </g>
          </g>
          <path id="패스_8006" data-name="패스 8006" d="M225,225.486a20.372,20.372,0,0,0,15.937,1.256" transform="translate(-189.718 -173.308)" fill="none" stroke="#4b2204" stroke-miterlimit="10" stroke-width="0.959"/>
          <path id="패스_8007" data-name="패스 8007" d="M265.894,227.837a.585.585,0,0,1,.182,1.105" transform="translate(-215.081 -174.766)" fill="none" stroke="#4b2204" stroke-miterlimit="10" stroke-width="0.959"/>
          <path id="패스_8008" data-name="패스 8008" d="M216.751,205.464a1.829,1.829,0,0,1,.756-1.62.828.828,0,0,1,.408-.167.406.406,0,0,1,.382.182.429.429,0,0,1-.04.431,1.271,1.271,0,0,1-.33.31l-1.175.864" transform="translate(-184.597 -159.78)" fill="#4b2204"/>
          <g id="그룹_3796" data-name="그룹 3796" transform="translate(30.326 46.939)">
            <path id="패스_8009" data-name="패스 8009" d="M212.047,212.069c-.041.288-.422,3.18.665,4.059a.326.326,0,0,0,.517-.153,2.243,2.243,0,0,0,.023-.907,23.406,23.406,0,0,0-.517-3.146c-.173-.344-.559-.3-.679.1A.378.378,0,0,0,212.047,212.069Z" transform="translate(-211.95 -211.69)" fill="#fff"/>
            <path id="패스_8010" data-name="패스 8010" d="M214.136,227.076s-.063-.445.207-.557c.5-.206.559.362.559.362s.5.889-.12,1.066S214.136,227.076,214.136,227.076Z" transform="translate(-213.302 -220.86)" fill="#fff"/>
          </g>
          <path id="패스_8011" data-name="패스 8011" d="M270.488,202.384a2.47,2.47,0,0,0,1.539,3.641,3.2,3.2,0,0,0,2.208-.337,7.275,7.275,0,0,0,1.784-1.41" transform="translate(-217.725 -158.979)" fill="none" stroke="#4b2204" stroke-miterlimit="10" stroke-width="0.959"/>
          <path id="패스_8012" data-name="패스 8012" d="M225.847,232.5s-5.8.066-8.043,2.835c0,0,2.966-1.582,4.021-1.121,0,0-5.142.4-3.3,10.284l5.01-5.34s-2.637,3.823-2.109,6.131l5.142-5.867-.132,1.846s2.439-.066,1.912-3.164a5.682,5.682,0,0,1,1.055,2.637s2.439-4.351-1.253-7.449A7.771,7.771,0,0,0,225.847,232.5Z" transform="translate(-185.254 -177.655)" fill="#fff"/>
          <path id="패스_8013" data-name="패스 8013" d="M265.888,181.39s15.217,13.916,16.979,15.971" transform="translate(-215.077 -145.958)" fill="none" stroke="#4b2204" stroke-miterlimit="10" stroke-width="0.959"/>
          <path id="패스_8014" data-name="패스 8014" d="M241.692,270.436s-2.708,5.191,1.128,5.53S246.262,271,246.262,271,244.061,268.179,241.692,270.436Z" transform="translate(-199.494 -200.644)" fill="#f9050f"/>
          <path id="패스_8015" data-name="패스 8015" d="M226.975,261.97a5.542,5.542,0,0,1,3.1.452,5.787,5.787,0,0,1,2.934,3.385l-1.242,4.288s-2.595,3.611-4.231,2.257.113-4.175.113-4.175S223.7,264.4,226.975,261.97Z" transform="translate(-190.138 -195.902)" fill="#f9050f"/>
          <path id="패스_8016" data-name="패스 8016" d="M250.19,270.511s3.836,6.827,6.714,5.247.169-4.288.169-4.288,5.473-2.652,4.345-6.376-10.889,1.58-10.889,1.58Z" transform="translate(-205.341 -197.052)" fill="#f9050f"/>
          <path id="패스_8017" data-name="패스 8017" d="M251.753,113.051l-4.815,20.311-4.326,4.852,1.642,1.026,4.218-5.423,4.67-20.489Z" transform="translate(-200.641 -103.573)" fill="#4b2204" opacity="0.15"/>
          <path id="패스_8018" data-name="패스 8018" d="M242.839,163.563l4.1,1.128-4.326,4.852Z" transform="translate(-200.641 -134.901)" fill="#4b2204" opacity="0.15"/>
        </g>
        <path id="패스_8019" data-name="패스 8019" d="M151.843,248.926s-8.229-6.578-3.183-8.461,14.086.151,13.86,1.431-9.341,2.335-9.341,2.335l4.972,3.088Z" transform="translate(-141.354 -182.124)" fill="#713008"/>
        <path id="패스_8020" data-name="패스 8020" d="M166.991,246.76s-3.468-7.788-11.151-3.871.326,2.988.854,3.817,4.193,2.059,4.193,2.059Z" transform="translate(-144.767 -183.418)" fill="#713008"/>
      </g>
    </g>
  </g>
</svg>
